# xmcd
#
# Track frame offsets:
#	150
#	17271
#	38419
#	52931
#	69881
#	84875
#	105888
#	120989
#	138462
#	160795
#	176995
#	193968
#	209438
#	224296
#
# Disc length: 3227 seconds
#
# Revision: 1
# Processed by: cddbd v1.5.2PL0 Copyright (c) Steve Scherf et al.
# Submitted via: EasyCDDAExtractor 15.3.0.1
#
DISCID=ad0c990e
DTITLE=Varios Artistas - Canciones De Amor Con Las Reinas
DYEAR=2013
DGENRE=Latin
TTITLE0=Ednita Nazario - Sin Querer
TTITLE1=Yuri - Detras De Mi Ventana
TTITLE2=Vikki Carr - Pero Te Extraño
TTITLE3=Melina Leon - Otra Vez
TTITLE4=Marisela - Total
TTITLE5=Ana Gabriel - Amor
TTITLE6=Isabel Pantoja - Amante... Amante
TTITLE7=Yolandita Monge - Contigo
TTITLE8=Angela Carrasco - Si Tu Eres Mi Hombre Y Yo Tu Mujer (The Power Of Lov
TTITLE8=e)
TTITLE9=Lucia Mendez - Juntos Por Costumbre
TTITLE10=Estela Nuñez - Dejate Amar
TTITLE11=Guadalupe Pineda - Historia De Un Amor
TTITLE12=Sophy - Lo Mejor De Mi
TTITLE13=Rocio Jurado - Mi Amante Amigo
EXTD=
EXTT0=
EXTT1=
EXTT2=
EXTT3=
EXTT4=
EXTT5=
EXTT6=
EXTT7=
EXTT8=
EXTT9=
EXTT10=
EXTT11=
EXTT12=
EXTT13=
PLAYORDER=
